<?xml version="1.0" encoding="UTF-8"?>
<svg xmlns="http://www.w3.org/2000/svg" xmlns:xlink="http://www.w3.org/1999/xlink" width="16px" height="16px" viewBox="0 0 16 16" version="1.1">
<g id="surface1">
<path style=" stroke:none;fill-rule:nonzero;fill:rgb(0%,0%,0%);fill-opacity:0.74902;" d="M 8 15.109375 C 7.773438 15.109375 7.550781 15.027344 7.382812 14.878906 C 6.734375 14.3125 6.113281 13.78125 5.5625 13.3125 L 5.558594 13.308594 C 3.949219 11.9375 2.554688 10.75 1.585938 9.582031 C 0.503906 8.273438 0 7.035156 0 5.683594 C 0 4.367188 0.449219 3.15625 1.269531 2.269531 C 2.097656 1.371094 3.234375 0.875 4.46875 0.875 C 5.394531 0.875 6.238281 1.167969 6.984375 1.742188 C 7.359375 2.035156 7.699219 2.390625 8 2.804688 C 8.300781 2.390625 8.640625 2.035156 9.015625 1.742188 C 9.761719 1.167969 10.605469 0.875 11.53125 0.875 C 12.765625 0.875 13.902344 1.371094 14.730469 2.269531 C 15.550781 3.15625 16 4.367188 16 5.683594 C 16 7.035156 15.496094 8.273438 14.414062 9.582031 C 13.445312 10.75 12.054688 11.9375 10.441406 13.308594 C 9.890625 13.777344 9.265625 14.3125 8.617188 14.878906 C 8.449219 15.027344 8.226562 15.109375 8 15.109375 Z M 4.46875 1.8125 C 3.5 1.8125 2.605469 2.199219 1.957031 2.902344 C 1.300781 3.617188 0.9375 4.605469 0.9375 5.683594 C 0.9375 6.820312 1.359375 7.839844 2.308594 8.984375 C 3.226562 10.089844 4.589844 11.25 6.167969 12.597656 L 6.171875 12.597656 C 6.722656 13.070312 7.347656 13.601562 8 14.171875 C 8.652344 13.601562 9.28125 13.066406 9.832031 12.597656 C 11.410156 11.25 12.773438 10.089844 13.691406 8.984375 C 14.640625 7.839844 15.0625 6.820312 15.0625 5.683594 C 15.0625 4.605469 14.699219 3.617188 14.042969 2.902344 C 13.394531 2.199219 12.5 1.8125 11.53125 1.8125 C 10.820312 1.8125 10.167969 2.039062 9.589844 2.484375 C 9.074219 2.882812 8.71875 3.382812 8.507812 3.734375 C 8.398438 3.917969 8.210938 4.023438 8 4.023438 C 7.789062 4.023438 7.601562 3.917969 7.492188 3.734375 C 7.28125 3.382812 6.925781 2.882812 6.410156 2.484375 C 5.832031 2.039062 5.179688 1.8125 4.46875 1.8125 Z M 4.46875 1.8125 "/>
</g>
</svg>
